General


Format                           : MPEG-4
Format profile                   : Base Media
Codec ID                         : isom
File size                        : 103 MiB
Duration                         : 4mn 25s
Overall bit rate                 : 3 268 Kbps
Encoded date                     : UTC 2012-03-03 15:57:01
Tagged date                      : UTC 2012-03-03 15:57:01

Video
ID                               : 1
Format                           : AVC
Format/Info                      : Advanced Video Codec
Format profile                   : High@L3.0
Format settings, CABAC           : Yes
Format settings, ReFrames        : 2 frames
Codec ID                         : avc1
Codec ID/Info                    : Advanced Video Coding
Duration                         : 4mn 25s
Bit rate mode                    : Variable
Bit rate                         : 3 161 Kbps
Maximum bit rate                 : 10.9 Mbps
Width                            : 720 pixels
Height                           : 480 pixels
Display aspect ratio             : 4:3
Original display aspect ratio    : 4:3
Frame rate mode                  : Constant
Frame rate                       : 29.970 fps
Standard                         : NTSC
Color space                      : YUV
Chroma subsampling               : 4:2:0
Bit depth                        : 8 bits
Scan type                        : Progressive
Bits/(Pixel*Frame)               : 0.305
Stream size                      : 101 MiB (97%)


Audio
ID                               : 2
Format                           : AAC
Format/Info                      : Advanced Audio Codec
Format profile                   : LC
Codec ID                         : 40
Duration                         : 4mn 25s
Bit rate mode                    : Variable
Bit rate                         : 79.9 Kbps
Maximum bit rate                 : 86.8 Kbps
Channel(s)                       : 2 channels
Channel positions                : Front: L R
Sampling rate                    : 48.0 KHz
Compression mode                 : Lossy
Stream size                      : 2.53 MiB (2%)


